<svg xmlns="http://www.w3.org/2000/svg" width="1024" height="360" viewBox="0 0 1024 360" fill="none">
  <path
    d="M 123 188 L 123 260 L 124 261 L 152 262 L 155 264 L 157 263 L 160 265 L 173 267 L 179 270 L 187 272 L 199 278 L 209 285 L 213 286 L 221 294 L 231 301 L 243 314 L 247 313 L 247 311 L 264 294 L 273 287 L 278 285 L 286 279 L 297 275 L 303 271 L 334 262 L 365 260 L 366 259 L 366 188 L 365 187 L 351 188 L 350 189 L 338 189 L 328 192 L 321 192 L 288 205 L 282 210 L 276 213 L 274 216 L 264 224 L 253 240 L 248 251 L 248 256 L 245 259 L 236 241 L 236 239 L 231 232 L 227 229 L 218 218 L 204 209 L 202 206 L 183 198 L 178 197 L 176 195 L 166 192 L 161 192 L 151 189 L 141 189 L 140 188 L 131 188 L 130 187 L 124 187 Z M 795 171 L 793 174 L 794 175 L 794 191 L 793 192 L 794 224 L 795 225 L 795 230 L 799 238 L 813 247 L 824 247 L 835 242 L 840 237 L 842 239 L 842 244 L 843 245 L 851 245 L 852 246 L 862 245 L 863 243 L 861 235 L 861 208 L 862 207 L 861 176 L 862 173 L 859 171 L 857 172 L 838 172 L 839 176 L 839 191 L 838 192 L 839 216 L 837 222 L 831 227 L 826 228 L 822 227 L 819 224 L 817 216 L 817 208 L 816 207 L 817 175 L 816 172 Z M 899 172 L 896 173 L 890 178 L 888 178 L 879 188 L 874 208 L 874 216 L 877 227 L 880 232 L 891 242 L 899 245 L 921 247 L 926 246 L 928 244 L 931 244 L 933 243 L 933 235 L 931 226 L 929 225 L 925 228 L 911 228 L 904 224 L 899 217 L 898 207 L 901 197 L 908 190 L 910 189 L 922 189 L 929 191 L 931 186 L 931 180 L 933 173 L 919 170 Z M 569 171 L 561 174 L 560 176 L 552 181 L 548 186 L 548 188 L 546 190 L 545 197 L 543 200 L 543 211 L 544 210 L 545 211 L 544 220 L 549 231 L 561 243 L 562 242 L 568 245 L 578 247 L 590 247 L 605 239 L 607 239 L 618 221 L 619 204 L 616 194 L 616 190 L 613 185 L 601 174 L 596 172 L 591 172 L 584 170 Z M 576 188 L 584 188 L 591 192 L 594 197 L 594 202 L 596 209 L 595 210 L 595 216 L 592 220 L 592 223 L 589 227 L 582 230 L 577 229 L 571 224 L 567 216 L 568 199 L 572 191 Z M 535 170 L 528 170 L 516 176 L 513 181 L 511 178 L 511 173 L 510 172 L 492 171 L 491 173 L 492 176 L 492 241 L 491 242 L 492 245 L 494 246 L 497 245 L 510 245 L 513 246 L 515 245 L 515 202 L 518 196 L 523 192 L 527 191 L 535 192 L 536 191 L 536 175 L 537 172 Z M 634 144 L 633 146 L 633 244 L 634 245 L 687 245 L 688 246 L 689 245 L 695 245 L 695 240 L 696 239 L 696 228 L 695 226 L 672 226 L 671 225 L 657 226 L 656 225 L 656 204 L 657 203 L 690 203 L 691 202 L 691 184 L 689 183 L 685 184 L 684 183 L 683 184 L 682 183 L 681 184 L 680 183 L 679 184 L 678 183 L 677 184 L 676 183 L 675 184 L 659 184 L 658 183 L 657 184 L 656 183 L 657 178 L 656 164 L 657 163 L 692 163 L 694 161 L 693 158 L 693 144 L 688 144 L 687 143 L 677 143 L 676 144 L 643 143 L 642 144 Z M 466 148 L 445 143 L 427 143 L 426 144 L 416 144 L 408 146 L 408 244 L 409 245 L 431 245 L 431 240 L 432 239 L 431 236 L 432 234 L 431 211 L 432 210 L 441 211 L 442 210 L 457 209 L 463 205 L 464 206 L 466 205 L 477 193 L 477 189 L 479 184 L 479 177 L 478 176 L 480 175 L 480 169 L 478 167 L 475 156 Z M 436 160 L 446 161 L 455 170 L 458 177 L 456 180 L 456 183 L 447 192 L 446 191 L 442 193 L 434 193 L 431 191 L 432 190 L 432 180 L 431 179 L 432 178 L 431 175 L 431 162 Z M 175 142 L 176 141 L 177 142 L 176 152 L 181 169 L 185 178 L 193 189 L 207 203 L 210 204 L 217 211 L 230 219 L 238 222 L 239 224 L 243 226 L 246 226 L 248 223 L 250 224 L 258 220 L 264 214 L 265 215 L 271 211 L 270 210 L 271 209 L 274 209 L 291 194 L 303 178 L 302 176 L 304 175 L 310 161 L 309 158 L 310 157 L 311 158 L 312 155 L 311 144 L 308 143 L 286 154 L 284 154 L 282 157 L 279 156 L 273 159 L 272 161 L 271 160 L 251 168 L 247 171 L 244 171 L 229 164 L 227 162 L 219 160 L 211 155 L 208 155 L 198 151 L 186 144 L 180 143 L 177 141 Z M 776 139 L 773 138 L 758 138 L 755 140 L 754 143 L 755 175 L 754 176 L 745 171 L 732 170 L 727 171 L 722 175 L 718 176 L 711 184 L 709 190 L 707 192 L 704 205 L 706 222 L 714 237 L 723 244 L 729 246 L 743 246 L 751 243 L 757 236 L 758 237 L 757 242 L 758 245 L 777 245 L 779 242 L 777 232 L 777 224 L 778 223 L 778 208 L 777 207 L 778 143 Z M 740 188 L 746 188 L 752 193 L 755 208 L 755 216 L 753 222 L 750 225 L 744 228 L 738 228 L 732 223 L 729 216 L 729 208 L 728 207 L 728 202 L 730 196 L 734 191 Z M 361 78 L 345 72 L 344 73 L 331 69 L 326 66 L 311 62 L 308 60 L 294 57 L 271 48 L 260 46 L 259 44 L 255 44 L 249 41 L 244 41 L 227 47 L 219 48 L 213 51 L 210 51 L 208 53 L 197 56 L 196 58 L 195 57 L 188 58 L 185 60 L 182 60 L 172 64 L 168 64 L 154 70 L 137 74 L 134 76 L 129 77 L 131 78 L 128 80 L 129 81 L 134 80 L 135 81 L 134 82 L 139 84 L 143 83 L 144 84 L 142 85 L 145 84 L 146 85 L 145 86 L 146 85 L 147 86 L 147 108 L 146 109 L 145 108 L 145 88 L 145 120 L 138 127 L 137 130 L 137 135 L 140 140 L 143 142 L 143 148 L 144 149 L 144 155 L 143 156 L 142 155 L 142 150 L 142 157 L 143 158 L 155 158 L 156 159 L 156 151 L 154 142 L 159 137 L 158 138 L 157 137 L 159 133 L 160 135 L 160 129 L 159 131 L 158 130 L 159 126 L 153 120 L 153 91 L 157 90 L 165 93 L 168 92 L 169 93 L 168 94 L 170 95 L 175 94 L 176 95 L 174 96 L 179 97 L 182 99 L 180 110 L 178 113 L 178 123 L 176 127 L 177 131 L 182 132 L 199 141 L 207 143 L 213 147 L 216 147 L 230 153 L 238 158 L 248 160 L 258 154 L 268 151 L 312 130 L 310 113 L 308 109 L 306 99 L 307 98 L 319 95 L 321 93 L 330 91 L 336 88 L 339 88 L 344 85 L 351 83 L 350 82 L 351 81 L 353 82 L 360 80 L 357 78 L 358 77 Z M 155 152 L 156 153 L 155 158 L 154 157 Z M 144 140 L 145 141 L 144 146 L 143 145 Z M 140 125 L 141 127 L 139 130 L 138 127 Z M 152 89 L 153 90 L 153 121 L 152 122 L 151 121 L 151 90 Z"
    fill="#0F62C2" fill-rule="evenodd"/>
</svg>
